# Blender v2.81 (sub 16) OBJ File: ''
# www.blender.org
mtllib light_house_p2.mtl
o Cube.002
v -0.534848 3.912911 0.000001
v -0.534848 5.425690 0.000001
v 0.000000 5.425690 -0.534847
v 0.000000 3.912911 -0.534847
v 0.534848 5.425690 0.000001
v 0.534848 3.912911 0.000001
v 0.000000 5.425690 0.534849
v 0.000000 3.912911 0.534849
vt 0.375000 0.000000
vt 0.625000 0.000000
vt 0.625000 0.250000
vt 0.375000 0.250000
vt 0.625000 0.500000
vt 0.375000 0.500000
vt 0.625000 0.750000
vt 0.375000 0.750000
vt 0.625000 1.000000
vt 0.375000 1.000000
vt 0.125000 0.500000
vt 0.125000 0.750000
vn -0.7071 0.0000 -0.7071
vn 0.7071 0.0000 -0.7071
vn 0.7071 -0.0000 0.7071
vn -0.7071 -0.0000 0.7071
vn 0.0000 -1.0000 0.0000
usemtl Material.001
s 1
f 1/1/1 2/2/1 3/3/1 4/4/1
f 4/4/2 3/3/2 5/5/2 6/6/2
f 6/6/3 5/5/3 7/7/3 8/8/3
f 8/8/4 7/7/4 2/9/4 1/10/4
f 4/11/5 6/6/5 8/8/5 1/12/5
o Circle.008
v 0.403283 4.850655 0.223393
v 0.405091 4.824695 0.221585
v 0.396660 4.824695 0.213155
v 0.394852 4.850655 0.214963
v 0.348416 4.854217 0.143204
v 0.342511 4.881746 0.149109
v 0.332921 4.907118 0.158698
v 0.320017 4.929356 0.171603
v 0.304292 4.947606 0.187327
v 0.286352 4.961167 0.205268
v 0.266885 4.969518 0.224734
v 0.246641 4.972338 0.244978
v 0.226397 4.969518 0.265222
v 0.206931 4.961167 0.284689
v 0.188991 4.947606 0.302629
v 0.173266 4.929356 0.318353
v 0.160361 4.907117 0.331258
v 0.150772 4.881746 0.340848
v 0.144867 4.854217 0.346753
v 0.142873 4.825587 0.348747
v 0.142873 4.525839 0.348746
v 0.350410 4.525839 0.141210
v 0.350410 4.825587 0.141210
v 0.256519 4.947606 0.370157
v 0.240794 4.929356 0.385882
v 0.387545 4.929356 0.239131
v 0.371820 4.947606 0.254856
v 0.227889 4.907118 0.398787
v 0.353880 4.961167 0.272796
v 0.218300 4.881746 0.408376
v 0.334414 4.969518 0.292262
v 0.212395 4.854217 0.414281
v 0.314170 4.972338 0.312507
v 0.417938 4.825587 0.208738
v 0.415944 4.854217 0.210732
v 0.210401 4.825587 0.416275
v 0.293926 4.969518 0.332751
v 0.410039 4.881746 0.216637
v 0.210401 4.525839 0.416275
v 0.417938 4.525839 0.208738
v 0.274459 4.961167 0.352217
v 0.400450 4.907118 0.226226
v 0.398113 4.874760 0.228564
v 0.389716 4.896975 0.236960
v 0.378417 4.916446 0.248260
v 0.364648 4.932426 0.262028
v 0.348940 4.944300 0.277736
v 0.331895 4.951612 0.294781
v 0.314170 4.954082 0.312507
v 0.296444 4.951612 0.330232
v 0.279400 4.944300 0.347277
v 0.263691 4.932426 0.362985
v 0.249923 4.916446 0.376754
v 0.238623 4.896975 0.388053
v 0.230227 4.874760 0.396449
v 0.225057 4.850655 0.401620
v 0.223249 4.824695 0.403428
v 0.223249 4.544008 0.403428
v 0.405091 4.544008 0.221585
v 0.216626 4.850655 0.393189
v 0.214818 4.824695 0.394997
v 0.305739 4.954082 0.304076
v 0.288014 4.951612 0.321802
v 0.389682 4.874760 0.220133
v 0.214818 4.544008 0.394997
v 0.396660 4.544008 0.213155
v 0.270969 4.944300 0.338846
v 0.381286 4.896975 0.228530
v 0.255261 4.932426 0.354555
v 0.369986 4.916446 0.239829
v 0.241492 4.916446 0.368323
v 0.356218 4.932426 0.253598
v 0.230193 4.896975 0.379623
v 0.340510 4.944300 0.269306
v 0.221796 4.874760 0.388019
v 0.323465 4.951612 0.286350
v -0.223392 4.850655 -0.403282
v -0.214962 4.850655 -0.394851
v -0.213154 4.824695 -0.396659
v -0.221584 4.824695 -0.405090
v -0.143202 4.854217 -0.348415
v -0.141209 4.825587 -0.350409
v -0.141209 4.525839 -0.350409
v -0.348745 4.525839 -0.142872
v -0.348745 4.825587 -0.142872
v -0.346752 4.854217 -0.144866
v -0.340847 4.881746 -0.150771
v -0.331257 4.907117 -0.160360
v -0.318352 4.929356 -0.173265
v -0.302628 4.947606 -0.188989
v -0.284688 4.961167 -0.206930
v -0.265221 4.969518 -0.226396
v -0.244977 4.972338 -0.246640
v -0.224733 4.969518 -0.266884
v -0.205267 4.961167 -0.286351
v -0.187326 4.947606 -0.304291
v -0.171602 4.929356 -0.320016
v -0.158697 4.907117 -0.332920
v -0.149108 4.881746 -0.342510
v -0.370156 4.947606 -0.256518
v -0.385881 4.929356 -0.240793
v -0.239130 4.929356 -0.387544
v -0.254855 4.947606 -0.371819
v -0.398786 4.907117 -0.227888
v -0.272795 4.961167 -0.353879
v -0.408375 4.881746 -0.218299
v -0.292261 4.969518 -0.334413
v -0.414280 4.854217 -0.212394
v -0.312506 4.972338 -0.314169
v -0.208737 4.825587 -0.417937
v -0.210731 4.854217 -0.415943
v -0.416274 4.825587 -0.210400
v -0.332750 4.969518 -0.293924
v -0.216636 4.881746 -0.410038
v -0.416274 4.525839 -0.210400
v -0.208737 4.525839 -0.417937
v -0.352216 4.961167 -0.274458
v -0.226225 4.907118 -0.400449
v -0.228563 4.874760 -0.398111
v -0.236959 4.896975 -0.389715
v -0.248259 4.916446 -0.378416
v -0.262027 4.932426 -0.364647
v -0.277735 4.944300 -0.348939
v -0.294780 4.951612 -0.331894
v -0.312506 4.954082 -0.314169
v -0.330231 4.951612 -0.296443
v -0.347276 4.944300 -0.279398
v -0.362984 4.932426 -0.263690
v -0.376753 4.916446 -0.249922
v -0.388052 4.896975 -0.238622
v -0.396448 4.874760 -0.230226
v -0.401619 4.850655 -0.225055
v -0.403427 4.824695 -0.223247
v -0.403427 4.544008 -0.223247
v -0.221584 4.544008 -0.405090
v -0.394996 4.824695 -0.214817
v -0.393188 4.850655 -0.216625
v -0.321801 4.951612 -0.288012
v -0.304075 4.954082 -0.305738
v -0.220132 4.874760 -0.389681
v -0.213154 4.544008 -0.396659
v -0.394996 4.544008 -0.214817
v -0.338845 4.944300 -0.270968
v -0.228529 4.896975 -0.381285
v -0.354554 4.932426 -0.255260
v -0.239828 4.916446 -0.369985
v -0.368322 4.916446 -0.241491
v -0.253597 4.932426 -0.356217
v -0.379622 4.896975 -0.230192
v -0.269305 4.944300 -0.340508
v -0.388018 4.874760 -0.221795
v -0.286349 4.951612 -0.323464
vt 0.000000 0.000000
vt 0.000000 0.000000
vt 0.000000 0.000000
vt 0.000000 0.000000
vt 0.000000 0.000000
vt 0.000000 0.000000
vt 0.000000 0.000000
vt 0.000000 0.000000
vt 0.000000 0.000000
vt 0.000000 0.000000
vt 0.000000 0.000000
vt 0.000000 0.000000
vt 0.000000 0.000000
vt 0.000000 0.000000
vt 0.000000 0.000000
vt 0.000000 0.000000
vt 0.000000 0.000000
vt 0.000000 0.000000
vt 0.000000 0.000000
vt 0.000000 0.000000
vt 0.000000 0.000000
vt 0.000000 0.000000
vt 0.000000 0.000000
vt 0.000000 0.000000
vt 0.000000 0.000000
vt 0.000000 0.000000
vt 0.000000 0.000000
vt 0.000000 0.000000
vt 0.000000 0.000000
vt 0.000000 0.000000
vt 0.000000 0.000000
vt 0.000000 0.000000
vt 0.000000 0.000000
vt 0.000000 0.000000
vt 0.000000 0.000000
vt 0.000000 0.000000
vt 0.000000 0.000000
vt 0.000000 0.000000
vt 0.000000 0.000000
vt 0.000000 0.000000
vt 0.000000 0.000000
vt 0.000000 0.000000
vt 0.000000 0.000000
vt 0.000000 0.000000
vt 0.000000 0.000000
vt 0.000000 0.000000
vt 0.000000 0.000000
vt 0.000000 0.000000
vt 0.000000 0.000000
vt 0.000000 0.000000
vt 0.000000 0.000000
vt 0.000000 0.000000
vt 0.000000 0.000000
vt 0.000000 0.000000
vt 0.000000 0.000000
vt 0.000000 0.000000
vt 0.000000 0.000000
vt 0.000000 0.000000
vt 0.000000 0.000000
vt 0.000000 0.000000
vt 0.000000 0.000000
vt 0.000000 0.000000
vt 0.000000 0.000000
vt 0.000000 0.000000
vt 0.000000 0.000000
vt 0.000000 0.000000
vt 0.000000 0.000000
vt 0.000000 0.000000
vt 0.000000 0.000000
vt 0.000000 0.000000
vt 0.000000 0.000000
vt 0.000000 0.000000
vt 0.000000 0.000000
vt 0.000000 0.000000
vt 0.000000 0.000000
vt 0.000000 0.000000
vt 0.000000 0.000000
vt 0.000000 0.000000
vt 0.000000 0.000000
vt 0.000000 0.000000
vt 0.000000 0.000000
vt 0.000000 0.000000
vt 0.000000 0.000000
vt 0.000000 0.000000
vt 0.000000 0.000000
vt 0.000000 0.000000
vt 0.000000 0.000000
vt 0.000000 0.000000
vt 0.000000 0.000000
vt 0.000000 0.000000
vt 0.000000 0.000000
vt 0.000000 0.000000
vt 0.000000 0.000000
vt 0.000000 0.000000
vt 0.000000 0.000000
vt 0.000000 0.000000
vt 0.000000 0.000000
vt 0.000000 0.000000
vt 0.000000 0.000000
vt 0.000000 0.000000
vt 0.000000 0.000000
vt 0.000000 0.000000
vt 0.000000 0.000000
vt 0.000000 0.000000
vt 0.000000 0.000000
vt 0.000000 0.000000
vt 0.000000 0.000000
vt 0.000000 0.000000
vt 0.000000 0.000000
vt 0.000000 0.000000
vt 0.000000 0.000000
vt 0.000000 0.000000
vt 0.000000 0.000000
vt 0.000000 0.000000
vt 0.000000 0.000000
vt 0.000000 0.000000
vt 0.000000 0.000000
vt 0.000000 0.000000
vt 0.000000 0.000000
vt 0.000000 0.000000
vt 0.000000 0.000000
vt 0.000000 0.000000
vt 0.000000 0.000000
vt 0.000000 0.000000
vt 0.000000 0.000000
vt 0.000000 0.000000
vt 0.000000 0.000000
vt 0.000000 0.000000
vt 0.000000 0.000000
vt 0.000000 0.000000
vt 0.000000 0.000000
vt 0.000000 0.000000
vt 0.000000 0.000000
vt 0.000000 0.000000
vt 0.000000 0.000000
vt 0.000000 0.000000
vt 0.000000 0.000000
vt 0.000000 0.000000
vt 0.000000 0.000000
vt 0.000000 0.000000
vt 0.000000 0.000000
vt 0.000000 0.000000
vt 0.000000 0.000000
vt 0.000000 0.000000
vt 0.000000 0.000000
vt 0.000000 0.000000
vt 0.000000 0.000000
vt 0.000000 0.000000
vt 0.000000 0.000000
vt 0.000000 0.000000
vt 0.000000 0.000000
vt 0.000000 0.000000
vn 0.6935 0.1951 -0.6936
vn 0.7062 0.0491 -0.7063
vn 0.7071 0.0000 0.7071
vn 0.3928 -0.8315 -0.3928
vn 0.5000 -0.7071 -0.5000
vn -0.5000 -0.7071 0.5000
vn -0.3928 -0.8315 0.3928
vn 0.5879 -0.5556 -0.5879
vn -0.2706 -0.9239 0.2706
vn 0.6533 -0.3827 -0.6533
vn -0.1380 -0.9808 0.1380
vn 0.6935 -0.1951 -0.6935
vn 0.0000 -1.0000 -0.0000
vn -0.7063 -0.0491 0.7063
vn -0.6935 -0.1951 0.6935
vn 0.7063 -0.0491 -0.7063
vn 0.1380 -0.9808 -0.1380
vn -0.6533 -0.3827 0.6533
vn 0.0000 1.0000 0.0000
vn 0.2706 -0.9239 -0.2706
vn -0.5879 -0.5556 0.5879
vn 0.7071 0.0000 -0.7071
vn -0.7071 -0.0000 0.7071
vn -0.7071 -0.0000 -0.7071
vn -0.7063 0.0491 0.7063
vn -0.6935 0.1951 0.6935
vn -0.1380 0.9808 0.1380
vn 0.6533 0.3827 -0.6533
vn -0.2706 0.9239 0.2706
vn 0.5879 0.5556 -0.5879
vn -0.3928 0.8315 0.3928
vn 0.5000 0.7071 -0.5000
vn -0.5000 0.7071 0.5000
vn 0.3929 0.8315 -0.3928
vn -0.5879 0.5556 0.5879
vn 0.2706 0.9239 -0.2706
vn -0.6533 0.3827 0.6533
vn 0.1380 0.9808 -0.1380
vn 0.6935 0.1951 -0.6935
vn 0.7063 0.0491 -0.7062
vn -0.7062 0.0491 0.7063
usemtl kapi
s 1
f 9/13/6 10/14/7 11/15/7 12/16/6
f 13/17/8 14/18/8 15/19/8 16/20/8 17/21/8 18/22/8 19/23/8 20/24/8 21/25/8 22/26/8 23/27/8 24/28/8 25/29/8 26/30/8 27/31/8 28/32/8 29/33/8 30/34/8 31/35/8
f 32/36/9 33/37/10 24/28/10 23/27/9
f 34/38/11 35/39/12 17/21/12 16/20/11
f 33/37/10 36/40/13 25/29/13 24/28/10
f 35/39/12 37/41/14 18/22/14 17/21/12
f 36/40/13 38/42/15 26/30/15 25/29/13
f 37/41/14 39/43/16 19/23/16 18/22/14
f 38/42/15 40/44/17 27/31/17 26/30/15
f 39/43/16 41/45/18 20/24/18 19/23/16
f 42/46/19 43/47/20 13/17/20 31/35/19
f 40/44/17 44/48/21 28/32/21 27/31/17
f 41/45/18 45/49/22 21/25/22 20/24/18
f 43/47/20 46/50/23 14/18/23 13/17/20
f 47/51/24 48/52/24 30/34/24 29/33/24
f 45/49/22 49/53/25 22/26/25 21/25/22
f 46/50/23 50/54/26 15/19/26 14/18/23
f 44/48/21 47/51/27 29/33/27 28/32/21
f 49/53/25 32/36/9 23/27/9 22/26/25
f 50/54/26 34/38/11 16/20/11 15/19/26
f 48/52/28 42/46/19 31/35/19 30/34/28
f 10/14/29 9/13/29 43/47/29 42/46/29
f 9/13/29 51/55/29 46/50/29 43/47/29
f 51/55/29 52/56/29 50/54/29 46/50/29
f 52/56/29 53/57/29 34/38/29 50/54/29
f 53/57/29 54/58/29 35/39/29 34/38/29
f 54/58/29 55/59/29 37/41/29 35/39/29
f 55/59/29 56/60/29 39/43/29 37/41/29
f 56/60/29 57/61/29 41/45/29 39/43/29
f 57/61/29 58/62/29 45/49/29 41/45/29
f 58/62/29 59/63/29 49/53/29 45/49/29
f 59/63/29 60/64/29 32/36/29 49/53/29
f 60/64/29 61/65/29 33/37/29 32/36/29
f 61/65/29 62/66/29 36/40/29 33/37/29
f 62/66/29 63/67/29 38/42/29 36/40/29
f 63/67/29 64/68/29 40/44/29 38/42/29
f 64/68/29 65/69/29 44/48/29 40/44/29
f 66/70/29 67/71/29 48/52/29 47/51/29
f 65/69/29 66/70/29 47/51/29 44/48/29
f 67/71/29 10/14/29 42/46/29 48/52/29
f 65/69/30 64/68/31 68/72/31 69/73/30
f 58/62/32 57/61/24 70/74/24 71/75/32
f 51/55/33 9/13/6 12/16/6 72/76/33
f 67/71/18 66/70/18 73/77/18 74/78/18
f 59/63/34 58/62/32 71/75/32 75/79/34
f 52/56/35 51/55/33 72/76/33 76/80/35
f 66/70/28 65/69/30 69/73/30 73/77/28
f 60/64/36 59/63/34 75/79/34 77/81/36
f 53/57/37 52/56/35 76/80/35 78/82/37
f 10/14/7 67/71/27 74/78/27 11/15/7
f 61/65/38 60/64/36 77/81/36 79/83/38
f 54/58/39 53/57/37 78/82/37 80/84/39
f 62/66/40 61/65/38 79/83/38 81/85/40
f 55/59/41 54/58/39 80/84/39 82/86/41
f 63/67/42 62/66/40 81/85/40 83/87/42
f 56/60/43 55/59/41 82/86/41 84/88/43
f 64/68/31 63/67/42 83/87/42 68/72/31
f 57/61/24 56/60/43 84/88/43 70/74/24
f 85/89/44 86/90/44 87/91/45 88/92/45
f 89/93/29 90/94/29 91/95/29 92/96/29 93/97/29 94/98/29 95/99/29 96/100/29 97/101/29 98/102/29 99/103/29 100/104/29 101/105/29 102/106/29 103/107/29 104/108/29 105/109/29 106/110/29 107/111/29
f 108/112/9 98/102/9 97/101/10 109/113/10
f 110/114/11 105/109/11 104/108/12 111/115/12
f 109/113/10 97/101/10 96/100/13 112/116/13
f 111/115/12 104/108/12 103/107/14 113/117/14
f 112/116/13 96/100/13 95/99/15 114/118/15
f 113/117/14 103/107/14 102/106/16 115/119/16
f 114/118/15 95/99/15 94/98/17 116/120/17
f 115/119/16 102/106/16 101/105/18 117/121/18
f 118/122/19 90/94/19 89/93/20 119/123/20
f 116/120/17 94/98/17 93/97/21 120/124/21
f 117/121/18 101/105/18 100/104/22 121/125/22
f 119/123/20 89/93/20 107/111/23 122/126/23
f 123/127/24 92/96/24 91/95/24 124/128/24
f 121/125/22 100/104/22 99/103/25 125/129/25
f 122/126/23 107/111/23 106/110/26 126/130/26
f 120/124/21 93/97/21 92/96/27 123/127/27
f 125/129/25 99/103/25 98/102/9 108/112/9
f 126/130/26 106/110/26 105/109/11 110/114/11
f 124/128/28 91/95/28 90/94/19 118/122/19
f 88/92/8 118/122/8 119/123/8 85/89/8
f 85/89/8 119/123/8 122/126/8 127/131/8
f 127/131/8 122/126/8 126/130/8 128/132/8
f 128/132/8 126/130/8 110/114/8 129/133/8
f 129/133/8 110/114/8 111/115/8 130/134/8
f 130/134/8 111/115/8 113/117/8 131/135/8
f 131/135/8 113/117/8 115/119/8 132/136/8
f 132/136/8 115/119/8 117/121/8 133/137/8
f 133/137/8 117/121/8 121/125/8 134/138/8
f 134/138/8 121/125/8 125/129/8 135/139/8
f 135/139/8 125/129/8 108/112/8 136/140/8
f 136/140/8 108/112/8 109/113/8 137/141/8
f 137/141/8 109/113/8 112/116/8 138/142/8
f 138/142/8 112/116/8 114/118/8 139/143/8
f 139/143/8 114/118/8 116/120/8 140/144/8
f 140/144/8 116/120/8 120/124/8 141/145/8
f 142/146/8 123/127/8 124/128/8 143/147/8
f 141/145/8 120/124/8 123/127/8 142/146/8
f 143/147/8 124/128/8 118/122/8 88/92/8
f 141/145/46 144/148/46 145/149/31 140/144/31
f 134/138/32 146/150/32 147/151/24 133/137/24
f 127/131/33 148/152/33 86/90/44 85/89/44
f 143/147/18 149/153/18 150/154/18 142/146/18
f 135/139/34 151/155/34 146/150/32 134/138/32
f 128/132/35 152/156/35 148/152/33 127/131/33
f 142/146/28 150/154/28 144/148/46 141/145/46
f 136/140/36 153/157/36 151/155/34 135/139/34
f 129/133/37 154/158/37 152/156/35 128/132/35
f 88/92/45 87/91/45 149/153/27 143/147/27
f 137/141/38 155/159/38 153/157/36 136/140/36
f 130/134/39 156/160/39 154/158/37 129/133/37
f 138/142/40 157/161/40 155/159/38 137/141/38
f 131/135/41 158/162/41 156/160/39 130/134/39
f 139/143/42 159/163/42 157/161/40 138/142/40
f 132/136/43 160/164/43 158/162/41 131/135/41
f 140/144/31 145/149/31 159/163/42 139/143/42
f 133/137/24 147/151/24 160/164/43 132/136/43
usemtl em
f 12/16/29 11/15/29 74/78/29 73/77/29 69/73/29 68/72/29 83/87/29 81/85/29 79/83/29 77/81/29 75/79/29 71/75/29 70/74/29 84/88/29 82/86/29 80/84/29 78/82/29 76/80/29 72/76/29
f 86/90/8 148/152/8 152/156/8 154/158/8 156/160/8 158/162/8 160/164/8 147/151/8 146/150/8 151/155/8 153/157/8 155/159/8 157/161/8 159/163/8 145/149/8 144/148/8 150/154/8 149/153/8 87/91/8
